<svg xmlns="http://www.w3.org/2000/svg" width="300" height="142" viewBox="0 0 300 142"><style>.a{fill:none;stroke:#14976A;}.b{fill:#14976A;}.c{fill:none;stroke-width:2;stroke:#14976A;}</style><path d="M151.5 85.5c-3.6 0-6.6-3-6.6-6.6 0-3.6 3-6.6 6.6-6.6s6.6 3 6.6 6.6C158.1 82.5 155.1 85.5 151.5 85.5z" class="a"/><circle cx="151.5" cy="78.9" r="5.6" class="b"/><path d="M34.6 83.5l-2-7.4 -7.2 0.2L24.1 83.5h-6.5l4.5-30H18.5v-8h20.7l8 38H34.6zM30.6 69.5l-2-7.5 -1.4 7.5H30.6z" class="a"/><path d="M38.4 47H20v5h3.3l-4.5 30h4.5l1.3-7.1 8.8-0.1L35.4 82h10.6L38.4 47zM25.5 71l2.8-13.6L32.3 71H25.5z" class="b"/><path d="M85.4 58.3c-0.1 8.4-8.2 12.3-10.6 13.4C72.5 72.7 67.5 73 67.5 73v10.5h-14v-30h-3v-8H76C78.9 45.8 85.5 49.9 85.4 58.3zM66.5 64.2c0 0 0.9 0.1 1.1 0.1 0.7 0 1.1-0.3 1.3-0.3 0.4-0.4 3.6-2.9 3.6-6.3v-0.2c0-3.2-3-5.2-3.4-5.5 -0.2-0.1-1-0.3-1.7-0.3 -0.2 0-0.9 0.1-0.9 0.1V64.2z" class="a"/><path d="M75.6 47H52v5h3v30h11V71.8c0 0 6.1-0.6 7.8-1.5 1.7-0.9 10.1-4.1 10.2-12.1C84 48.5 75.6 47 75.6 47zM74 57.6c0 4.1-3.5 6.9-3.9 7.2C69.7 65 67 65.7 65 64.9V51c2-0.8 5.1 0.1 5.1 0.1S74 53.3 74 57.5V57.6z" class="b"/><polygon points="118.5 83.5 118.5 68.3 113 74.4 106.5 67.8 106.5 83.5 90.5 83.5 90.5 53.5 87.5 52.3 87.5 45.5 105.5 45.5 113 53.6 119.5 45.5 138.5 45.5 138.5 52.5 135.5 53.6 135.5 83.5 " class="a"/><polygon points="120 82 120 64.8 113 72 105 64.4 105 82 92 82 92 52.8 89 51.6 89 47 105 47 113 55.7 120 47 137 47 137 51.8 134 52.9 134 82 " class="b"/><polygon points="164.5 103.5 164.5 71.7 161.5 69.2 161.5 62.5 195.5 62.5 195.5 73.5 187.5 73.5 187.5 70.6 185.5 69.1 181.3 69.2 179.3 70.8 179.3 74.7 181.3 75.5 187.5 75.5 187.5 83.5 181.5 83.5 179.5 84.1 179.5 93.4 181.3 95.5 185.7 95.5 187.5 93.5 187.5 90.5 195.5 90.5 195.5 103.5 " class="a"/><polygon points="163 64 163 68.8 166 71.2 166 102 194 102 194 92 189 92 189 94 186 97 181 97 178 94 178 82.9 181 82 186 82 186 76.7 181 76.7 178 75.4 178 70.3 181 68 185.7 68 188.8 70 188.8 72 194 72 194 64 " class="b"/><path d="M224 103.5l-0.1-1.2c0 0-0.2-3.4-0.8-11.2 -0.6-8.4-3.8-9.1-4.7-9.1 -0.2 0-0.3 0-0.3 0 -0.2 0.2-0.5 1.3-0.5 2.2l0 0.1 0 0.1c-0.4 2.3-0.1 13.7 0 17.8l0 1.3H202.5V71.7l-3-2.5V62.5h17v8c0 0.8 0.5 1.5 0.8 1.8 0.1 0 0.3 0.3 1.1 0.3 1.5 0 3.1-0.6 3.1-3.4V62.5h12.3l0.1 1.7c0.1 1.6 0.2 4.2 0 5 -0.2 0.6-1 1.6-3.2 4.5 -0.6 0.8-1.1 1.4-1.3 1.7 -0.4 0.6 0 1.5 0.2 2 0.3 0.7 2.5 3 3.9 4.5l0.1 0.1 0.1 0.1c0.6 0.9 3.6 5.6 3.7 7.5 0.1 1.8 0 12.3 0 12.7l0 1.2H224z" class="a"/><path d="M215 70.5c0-1.1 0-6.5 0-6.5h-14v4.8l3 2.5V102h12.7c0 0-0.5-14.9 0-17.7 0 0 0.1-2.8 1.2-3.2 0.5-0.2 5.7-0.9 6.4 9.9 0.5 7.8 0.8 11.1 0.8 11.1h11.3c0 0 0.1-10.7 0-12.5 -0.1-1.8-3.5-7-3.5-7s-3.5-3.6-4.1-4.7c-0.6-1.1-0.8-2.2-0.2-3.1s4.1-5.3 4.3-6c0.2-0.7 0-4.8 0-4.8H223v5.2c0 5.3-5.5 4.6-6.2 4C216 72.6 215 71.7 215 70.5z" class="b"/><path d="M163.7 45.6c0 0 12.7-6.3 17.3-6.8 4.8-0.5 9.2-1.2 16.7 0.5 2.2 0.5 30.1 7.4 42 9.1 11.9 1.7 18.9 1.5 23.7 0 12-3.8 15.7-6.3 15.7-6.3" class="c"/><path d="M163 53.1c0 0 12.7-6.3 17.3-6.8 4.8-0.5 9.2-1.2 16.7 0.5 2.2 0.5 30.1 7.4 42 9.1 11.9 1.7 18.9 1.5 23.7 0 12-3.8 15.7-6.3 15.7-6.3" class="c"/><path d="M131.1 97c0 0-12.7-6.3-17.3-6.8 -4.8-0.5-9.2-1.2-16.7 0.5 -2.2 0.5-30.1 7.4-42 9.1 -11.9 1.7-18.9 1.5-23.7 0 -12-3.8-15.7-6.3-15.7-6.3" class="c"/><path d="M131.1 104.5c0 0-12.7-6.3-17.3-6.8 -5.9-0.6-9.3-1.2-16.7 0.5 -2.2 0.5-30.1 7.4-42 9.1 -11.9 1.7-18.9 1.5-23.7 0 -12-3.8-15.7-6.3-15.7-6.3" class="c"/><path d="M267.2 62.5c6.2 4 11 12.7 11 20.5 0 8.9-5.5 16.5-12.3 20.5h-12.4C246.7 99.5 241 91.9 241 83c0-7.8 4.9-16.5 11.1-20.5H267.2zM259.8 69.4c-2.4 0-5.1 5.9-5.1 13.4 0 7.4 2.7 13 5.1 13 2.4 0 5.1-5.5 5.1-13C264.9 75.2 262.2 69.4 259.8 69.4z" class="a"/><path d="M266.6 64h-13.9c0 0 0 0 0 0 -5.6 4-9.5 10.7-9.5 18.7 0 8.5 4.5 16.3 10.7 19.3H265.4c6.3-3 10.7-10.8 10.7-19.3C276.1 74.7 272.2 68 266.6 64zM259.8 96.8c-3.4 0-6.1-6.5-6.1-14 0-7.4 2.7-14.4 6.1-14.4 3.4 0 6.1 7 6.1 14.4C265.9 90.3 263.2 96.8 259.8 96.8z" class="b"/><path d="M150.7 141.7c-36.4 0-71.4-6.2-98.6-17.4l1.1-2.6c26.9 11.1 61.5 17.2 97.5 17.2 39.4 0 76.3-7.1 104.1-20.1 27.4-12.8 41.6-29.7 41.6-47.6s-14.1-34.8-41.6-47.6C227.1 10.6 190.1 3.5 150.7 3.5c-39.4 0-76.3 7.1-104.1 20.1C19.2 36.4 4 53.3 4 71.2c0 7.3 2.5 14.5 7.6 21.4l-2.3 1.7c-5.4-7.4-8.1-15.2-8.1-23.1 0-19 15.7-36.9 44.2-50.2C73.6 7.9 111 0.6 150.7 0.6c39.8 0 77.2 7.2 105.3 20.4 28.5 13.3 43.2 31.1 43.2 50.2s-14.7 36.9-43.2 50.2C227.9 134.5 190.5 141.7 150.7 141.7z" fill="#D82500"/><path d="M150.7 142.2c-36.4 0-71.5-6.2-98.8-17.5l1.4-3.5c26.8 11.1 61.4 17.2 97.4 17.2 80.6 0 145.2-30.2 145.2-67.2 0-37.1-64.6-67.2-145.2-67.2S4.5 34.1 4.5 71.2c0 7.2 2.5 14.3 7.5 21.1l-3.1 2.2c-5.4-7.5-8.2-15.3-8.2-23.4 0-19.2 15.8-37.2 44.5-50.6C73.4 7.4 110.9 0.2 150.7 0.2s77.3 7.3 105.5 20.4c28.7 13.4 43.5 31.3 43.5 50.6 0 19.2-14.8 37.2-43.5 50.6C228 134.9 190.6 142.2 150.7 142.2z" class="b"/><path d="M275.4 9.7h-2.9v9.4c0 0.5-0.1 0.9-0.4 1.2 -0.2 0.3-0.6 0.4-0.9 0.4 -0.4 0-0.7-0.1-1-0.4 -0.2-0.3-0.4-0.7-0.4-1.2V9.7h-2.9c-0.4 0-0.8-0.1-1-0.3 -0.2-0.2-0.3-0.5-0.3-0.8 0-0.3 0.1-0.6 0.3-0.8 0.2-0.2 0.6-0.3 1-0.3h8.4c0.5 0 0.8 0.1 1 0.3 0.2 0.2 0.3 0.5 0.3 0.8s-0.1 0.6-0.3 0.8C276.1 9.6 275.8 9.7 275.4 9.7z" class="b"/><path d="M282.6 18.6l-2.1-8.3v9c0 0.5-0.1 0.9-0.3 1.1s-0.5 0.4-0.9 0.4c-0.4 0-0.6-0.1-0.9-0.4 -0.2-0.2-0.3-0.6-0.3-1.1V9c0-0.6 0.1-0.9 0.4-1.1 0.3-0.2 0.7-0.3 1.2-0.3h0.8c0.5 0 0.8 0 1.1 0.1 0.2 0.1 0.4 0.2 0.5 0.5 0.1 0.2 0.2 0.6 0.4 1.1l1.9 7.1 1.9-7.1c0.1-0.5 0.3-0.9 0.4-1.1 0.1-0.2 0.3-0.4 0.5-0.5 0.2-0.1 0.6-0.1 1.1-0.1h0.8c0.5 0 0.9 0.1 1.2 0.3 0.3 0.2 0.4 0.6 0.4 1.1V19.2c0 0.5-0.1 0.9-0.3 1.1 -0.2 0.2-0.5 0.4-0.9 0.4 -0.3 0-0.6-0.1-0.9-0.4 -0.2-0.2-0.3-0.6-0.3-1.1v-9l-2.1 8.3c-0.1 0.5-0.2 0.9-0.3 1.2 -0.1 0.3-0.2 0.5-0.5 0.7 -0.2 0.2-0.5 0.3-1 0.3 -0.3 0-0.6-0.1-0.8-0.2 -0.2-0.1-0.4-0.3-0.5-0.5 -0.1-0.2-0.2-0.4-0.3-0.7C282.8 19.1 282.7 18.8 282.6 18.6z" class="b"/></svg>