<svg xmlns="http://www.w3.org/2000/svg" width="48" height="48" viewBox="0 0 48 48" class="svg__sprite">
	<symbol viewBox="0 0 48 48" id="envelope" fill="url(#linear-gradient)">
		<defs><rect x="1.4" y="6.6" width="45" height="32.7"/></defs><path d="M46.4 36.9V9l-15.5 14L46.4 36.9zM46.4 36.9" clip-path="url(#SVGID_2_)"/><path d="M23.9 29.2l-4.4-4L4 39.2h39.9l-15.5-14L23.9 29.2zM23.9 29.2"/><path d="M43.9 6.7H4l20 18L43.9 6.7zM43.9 6.7"/><path d="M1.4 9v27.9l15.5-14L1.4 9zM1.4 9"/>
	</symbol>
	<symbol viewBox="0 0 48 48" id="phone">
		<path fill="url(#linear-gradient)" d="M46.5 35.1c-0.1-0.4-0.9-0.9-2.4-1.7 -0.4-0.2-1-0.5-1.7-0.9 -0.7-0.4-1.4-0.8-2-1.1 -0.6-0.3-1.2-0.7-1.7-1 -0.1-0.1-0.3-0.2-0.8-0.5 -0.4-0.3-0.8-0.5-1.1-0.7s-0.6-0.2-0.9-0.2c-0.4 0-0.9 0.3-1.6 0.9 -0.6 0.6-1.2 1.2-1.7 1.9 -0.5 0.7-1.1 1.3-1.7 1.9 -0.6 0.6-1.1 0.9-1.4 0.9 -0.2 0-0.4-0.1-0.7-0.2 -0.3-0.1-0.5-0.2-0.6-0.3 -0.1-0.1-0.4-0.2-0.7-0.4 -0.4-0.2-0.6-0.3-0.6-0.4 -2.9-1.6-5.3-3.4-7.3-5.4 -2-2-3.9-4.5-5.4-7.3 0 0-0.1-0.2-0.4-0.6 -0.2-0.4-0.4-0.6-0.4-0.8 -0.1-0.1-0.2-0.4-0.3-0.6 -0.1-0.3-0.2-0.5-0.2-0.7 0-0.4 0.3-0.9 0.9-1.4 0.6-0.6 1.2-1.1 1.9-1.7 0.7-0.5 1.3-1.1 1.9-1.7 0.6-0.6 0.9-1.1 0.9-1.6 0-0.3-0.1-0.6-0.2-0.9 -0.1-0.3-0.4-0.7-0.7-1.1 -0.3-0.4-0.5-0.7-0.5-0.8 -0.3-0.5-0.6-1.1-1-1.7C15.8 6.5 15.4 5.8 15 5.1c-0.4-0.7-0.7-1.3-0.9-1.7 -0.7-1.5-1.3-2.2-1.7-2.4 -0.1-0.1-0.4-0.1-0.7-0.1 -0.6 0-1.3 0.1-2.2 0.3S8 1.7 7.4 1.9C6.4 2.4 5.3 3.6 4.1 5.7 3.1 7.7 2.5 9.6 2.5 11.5c0 0.6 0 1.1 0.1 1.6 0.1 0.5 0.2 1.1 0.4 1.8 0.2 0.7 0.3 1.2 0.5 1.5 0.1 0.3 0.3 0.9 0.6 1.7s0.5 1.3 0.6 1.5c0.7 2 1.6 3.9 2.6 5.5 1.6 2.7 3.9 5.4 6.7 8.3 2.8 2.8 5.6 5.1 8.3 6.7 1.6 1 3.4 1.9 5.5 2.6 0.2 0.1 0.7 0.2 1.5 0.6 0.8 0.3 1.4 0.5 1.7 0.6 0.3 0.1 0.8 0.3 1.5 0.5 0.7 0.2 1.3 0.3 1.8 0.4 0.5 0.1 1.1 0.1 1.6 0.1 1.9 0 3.9-0.5 5.8-1.6 2.1-1.2 3.4-2.3 3.8-3.3 0.2-0.5 0.4-1.2 0.7-2.1 0.2-0.9 0.3-1.6 0.3-2.2C46.6 35.4 46.5 35.2 46.5 35.1L46.5 35.1zM46.5 35.1"/>
	</symbol>
	<symbol viewBox="0 0 48 48" id="facebook">
		<path fill="url(#linear-gradient)" d="M28.406,16.338l0.014-3.624c0-1.882,0.127-2.894,2.83-2.894h4.994V2.584h-7.158
		c-6.955,0-8.555,3.586-8.555,9.49l0.013,4.264h-5.276v7.223h5.276v20.99h7.863v-20.99h7.146l0.77-7.223H28.406z"/>
	</symbol>
	<symbol viewBox="0 0 48 48" id="linkedin">
		<path fill="url(#linear-gradient)" d="M44.479,27.236v14.741h-8.545V28.225c0-3.455-1.236-5.812-4.33-5.812c-2.361,0-3.766,1.588-4.383,3.125
		c-0.225,0.549-0.283,1.313-0.283,2.083v14.356h-8.548c0,0,0.114-23.294,0-25.706h8.548v3.643c-0.018,0.027-0.041,0.056-0.057,0.084
		h0.057v-0.084c1.137-1.748,3.162-4.247,7.701-4.247C40.264,15.668,44.479,19.342,44.479,27.236L44.479,27.236z M9.447,3.88
		c-2.924,0-4.836,1.918-4.836,4.44c0,2.468,1.858,4.443,4.724,4.443h0.057c2.98,0,4.834-1.975,4.834-4.443
		C14.169,5.799,12.372,3.88,9.447,3.88L9.447,3.88z M5.119,41.978h8.544V16.272H5.119V41.978z M5.119,41.978"/>
	</symbol>
	<symbol viewBox="0 0 48 48" id="arrow">
		<path fill="url(#linear-gradient)" d="M30.224,42.043c-1.201,1.201-3.136,1.201-4.336,0c-0.602-0.601-0.902-1.38-0.902-2.169c0-0.788,0.301-1.567,0.902-2.168
		L36.532,27.07H4.07C2.38,27.07,1,25.699,1,24s1.371-3.07,3.07-3.07h32.462L25.888,10.294c-1.202-1.202-1.202-3.135,0-4.337
		c1.2-1.202,3.135-1.202,4.336,0l15.875,15.875C46.681,22.404,47,23.183,47,24c0,0.816-0.319,1.596-0.901,2.168L30.224,42.043z
		M30.224,42.043"/>
	</symbol>
	<symbol viewBox="0 0 48 48" id="arrowWhite">
		<path fill="#fff" d="M30.224,42.043c-1.201,1.201-3.136,1.201-4.336,0c-0.602-0.601-0.902-1.38-0.902-2.169c0-0.788,0.301-1.567,0.902-2.168
		L36.532,27.07H4.07C2.38,27.07,1,25.699,1,24s1.371-3.07,3.07-3.07h32.462L25.888,10.294c-1.202-1.202-1.202-3.135,0-4.337
		c1.2-1.202,3.135-1.202,4.336,0l15.875,15.875C46.681,22.404,47,23.183,47,24c0,0.816-0.319,1.596-0.901,2.168L30.224,42.043z
		M30.224,42.043"/>
	</symbol>
	<symbol viewBox="0 0 48 48" id="checked">
		<path d="M2.974,25.601C2.66,25.276,2.5,24.788,2.5,24.484c0-0.324,0.16-0.809,0.474-1.122l2.249-2.249
		c0.639-0.639,1.601-0.639,2.239,0l0.161,0.164l8.801,9.445c0.314,0.324,0.798,0.324,1.113,0L38.97,8.476h0.164
		c0.648-0.634,1.601-0.634,2.249,0l2.225,2.239c0.648,0.649,0.648,1.601,0,2.249l-25.583,26.55
		c-0.324,0.324-0.639,0.484-1.127,0.484c-0.474,0-0.798-0.16-1.112-0.484L3.298,26.085L2.974,25.601z M2.974,25.601"/>
	</symbol>
	<symbol viewBox="0 0 48 48" id="refresh">
		<path d="M43.775,13.471c-0.837-0.56-1.97-0.334-2.529,0.503l-3.352,5.016c-0.8-2.654-2.247-5.087-4.263-7.103
		c-6.636-6.636-17.433-6.636-24.069,0c-6.635,6.635-6.635,17.432,0,24.068c3.318,3.318,7.676,4.978,12.035,4.978
		s8.716-1.659,12.034-4.978c0.712-0.712,0.712-1.866,0-2.579c-0.712-0.712-1.867-0.712-2.579,0c-5.214,5.214-13.697,5.214-18.91,0
		c-5.213-5.213-5.213-13.696,0-18.91s13.696-5.213,18.91,0c1.609,1.609,2.757,3.558,3.379,5.684l-5.56-3.714
		c-0.838-0.56-1.971-0.334-2.529,0.503c-0.561,0.838-0.335,1.971,0.503,2.53l8.934,5.97c0.312,0.207,0.663,0.307,1.012,0.307
		c0.589,0,1.167-0.284,1.519-0.811l5.969-8.934C44.839,15.163,44.613,14.031,43.775,13.471L43.775,13.471z M43.775,13.471"/>
	</symbol>
	<symbol viewBox="0 0 48 48" id="eye">
		<path d="M23.998,12.848c5.881,0,10.856,2.681,13.994,4.927c3.72,2.665,5.636,5.241,6.129,6.225
		c-0.497,0.983-2.409,3.56-6.129,6.225c-3.138,2.246-8.113,4.928-13.994,4.928c-5.877,0-10.853-2.682-13.993-4.928
		C6.285,27.56,4.373,24.983,3.875,24c0.497-0.983,2.409-3.56,6.129-6.225C13.146,15.529,18.121,12.848,23.998,12.848 M23.998,10.061
		C11.297,10.061,1,21.213,1,24s10.297,13.939,22.998,13.939C36.702,37.939,47,26.787,47,24S36.702,10.061,23.998,10.061
		L23.998,10.061z M23.998,15.635c-4.617,0-8.361,3.747-8.361,8.365s3.744,8.365,8.361,8.365c4.622,0,8.365-3.747,8.365-8.365
		S28.62,15.635,23.998,15.635L23.998,15.635z M21.749,24c-1.957,0-3.539-1.585-3.539-3.539c0-1.954,1.582-3.54,3.539-3.54
		c1.954,0,3.537,1.585,3.537,3.54C25.285,22.415,23.703,24,21.749,24L21.749,24z M21.749,24"/>
	</symbol>
	<linearGradient id="linear-gradient" x1="0" y1="0" x2="0" y2="100%">
		<stop offset="0" style="stop-color:#EF473A"/>
		<stop offset="1" style="stop-color:#CB2D3E"/>
	</linearGradient>
</svg>