<svg xmlns="http://www.w3.org/2000/svg" width="77" height="26" viewBox="0 0 77 26">
	<style>.a{fill:#FFF;}</style>
	<path d="M19.6 19.1l3.4 3.5c0.6-0.6 0.9-1.8 0.9-2.4 0-3.3-2-6-5.3-6 -0.7 0-0.7 0-0.9 0.1l-2.6-2.5L11 8c0 0 0.1-0.5 0.1-1.5 0-3.3-2.7-5.3-6-5.3 -0.6 0-2 0.4-2.4 0.9l3.4 3.4C6.4 5.8 6.3 6.3 6 6.7 5.7 7 5.2 7.2 4.9 6.9L1.4 3.4C0.9 4 0.5 5.2 0.5 5.8c0 3.3 2 6 5.3 6 0.9 0 0.7-0.1 1.1-0.1l4.4 4.3 2.1 2.1c0 0.2-0.1 0.7-0.1 1.4 0 3.3 2.7 5.3 5.9 5.3 0.6 0 2-0.4 2.4-0.9l-3.4-3.5C17.9 20.1 18 19.6 18.3 19.2 18.8 19 19.2 18.8 19.6 19.1z" class="a"/>
	<path d="M70.9 19.6c2.7-1.8 6.1-4.5 6.1-7.6 0-5.5-6.9-9.9-13.7-9.9l0 0c-6.6 0-13.7 4.4-13.7 9.9 0 5.5 6.9 9 13.7 9 0.6 0 4.2-0.1 4.2-0.1L70.9 24V19.6z" class="a"/>
	<path d="M32.2 2.5v16l-0.5-0.3c-0.9-0.4-2.3-0.5-3.5-0.2 -2.5 0.6-3.3 2.7-2.8 4.6 0.5 1.9 2.9 2.9 5.5 2.2 2.2-0.6 3.5-2.4 3.7-4.2V6.8L45.6 5.3v10.5l-0.6-0.4c-0.9-0.4-2.3-0.5-3.5-0.2 -2.5 0.6-3.3 2.7-2.8 4.6 0.5 1.9 2.9 2.9 5.5 2.2 2.2-0.6 3.6-2.4 3.8-4.2V0.3L32.2 2.5z" class="a"/>
</svg>