<?xml version="1.0" encoding="utf-8"?>
<!-- Generated by IcoMoon.io -->
<!DOCTYPE svg PUBLIC "-//W3C//DTD SVG 1.1//EN" "http://www.w3.org/Graphics/SVG/1.1/DTD/svg11.dtd">
<svg version="1.1" xmlns="http://www.w3.org/2000/svg" xmlns:xlink="http://www.w3.org/1999/xlink" width="32" height="98" viewBox="0 0 32 98">
<svg id="icon-wrench" width="25" height="25" viewBox="0 0 32 32" x="0" y="0" filter="url(#color-shadow)">
<path fill="#fff" d="M25.419 23.781l4.398 4.421c0.713-0.741 1.181-2.293 1.183-3.062 0.009-4.218-2.552-7.641-6.767-7.65-0.887-0.002-0.955 0.055-1.21 0.083l-3.286-3.196-5.329-4.88c0 0 0.185-0.645 0.185-1.939 0-4.217-3.417-6.785-7.633-6.785-0.771 0-2.61 0.487-3.066 1.176l4.41 4.41c0.423 0.42 0.229 1.011-0.137 1.555-0.544 0.366-1.137 0.562-1.558 0.14l-4.411-4.41c-0.709 0.743-1.175 2.295-1.175 3.065 0 4.217 2.57 7.634 6.786 7.634 1.104 0 0.932-0.090 1.446-0.1l5.687 5.556 2.648 2.657c-0.053 0.249-0.156 0.846-0.158 1.804-0.010 4.216 3.401 6.792 7.616 6.802 0.774 0.001 2.611-0.479 3.071-1.168l-4.402-4.421c-0.419-0.421-0.224-1.013 0.143-1.555 0.545-0.365 1.137-0.559 1.559-0.137z"></path>
</svg>
<svg id="icon-cloud" width="25" height="25" viewBox="0 0 32 32" x="0" y="33" filter="url(#color-shadow)">
<path fill="#fff" d="M24.398 25.361c2.952-1.946 6.472-4.915 6.472-8.243 0-5.857-7.476-10.605-14.685-10.605v0c-7.21 0-14.685 4.748-14.685 10.605 0 5.858 7.475 9.79 14.686 9.79 0.692 0 4.482-0.128 4.482-0.128l3.675 3.378z"></path>
</svg>
<svg id="icon-music" width="22" height="22" viewBox="0 0 32 32" x="0" y="66" filter="url(#color-shadow)">
<path fill="#fff" d="M30 0h2v23c0 2.761-3.134 5-7 5s-7-2.239-7-5c0-2.761 3.134-5 7-5 1.959 0 3.729 0.575 5 1.501v-11.501l-16 3.556v15.444c0 2.761-3.134 5-7 5s-7-2.239-7-5c0-2.761 3.134-5 7-5 1.959 0 3.729 0.575 5 1.501v-19.501l18-4z"></path>
</svg>

<filter id='color-shadow' data-iconmelon='filter:d8b3243222f113cd0dd357f0aaed2ee9' color-interpolation-filters="sRGB">
    <feComponentTransfer in="SourceGraphic">
      <feFuncR type="discrete" tableValues=".0"/>
      <feFuncG type="discrete" tableValues=".0"/>
      <feFuncB type="discrete" tableValues=".0"/>
    </feComponentTransfer>
    <feGaussianBlur stdDeviation="1"/>
    <feOffset dx="0" dy="0" result="shadow"/>
    <feComposite in="SourceGraphic" in2="shadow" operator="over"/>
  </filter>

</svg>
