<svg xmlns="http://www.w3.org/2000/svg" width="75" height="24" viewBox="0 0 75 24">
	<path fill="#FFFFFF" d="M19.6,18.1l3.4,3.5c0.6-0.6,0.9-1.8,0.9-2.4c0-3.3-2-6-5.3-6c-0.7,0-0.7,0-0.9,0.1l-2.6-2.5L11,7
	c0,0,0.1-0.5,0.1-1.5c0-3.3-2.7-5.3-6-5.3c-0.6,0-2,0.4-2.4,0.9l3.4,3.4c0.3,0.3,0.2,0.8-0.1,1.2C5.7,6,5.2,6.2,4.9,5.9L1.4,2.4
	C0.9,3,0.5,4.2,0.5,4.8c0,3.3,2,6,5.3,6c0.9,0,0.7-0.1,1.1-0.1l4.4,4.3l2.1,2.1c0,0.2-0.1,0.7-0.1,1.4c0,3.3,2.7,5.3,5.9,5.3
	c0.6,0,2-0.4,2.4-0.9l-3.4-3.5c-0.3-0.3-0.2-0.8,0.1-1.2C18.8,18,19.2,17.8,19.6,18.1z"/>
	<path fill="#FFFFFF" d="M68.7,17.5c2.3-1.5,5.1-3.8,5.1-6.4c0-4.6-5.8-8.3-11.5-8.3l0,0c-5.6,0-11.5,3.7-11.5,8.3 
	c0,4.6,5.8,7.6,11.5,7.6c0.5,0,3.5-0.1,3.5-0.1l2.9,2.6L68.7,17.5z"/>
	<path fill="#FFFFFF" d="M46.6,1L48,0.7v16.1c0,1.9-2.2,3.4-4.8,3.4c-2.7,0-4.8-1.5-4.8-3.4s2.2-3.4,4.8-3.4c1.3,0,2.6,0.4,3.4,1V6.5 l-11,2.4v10.6c0,1.9-2.2,3.4-4.8,3.4c-2.7,0-4.8-1.5-4.8-3.4s2.2-3.4,4.8-3.4c1.3,0,2.6,0.4,3.4,1V3.8L46.6,1z"/>
</svg>
